<?xml version="1.0" standalone="no"?>
<svg xmlns:xlink="http://www.w3.org/1999/xlink" id="wave" style="transform:rotate(0deg); transition: 0.3s" viewBox="0 0 1440 200" version="1.1" xmlns="http://www.w3.org/2000/svg"><defs><linearGradient id="sw-gradient-0" x1="0" x2="0" y1="1" y2="0"><stop stop-color="rgba(6, 214, 160, 1)" offset="0%"/><stop stop-color="rgba(255, 209, 102, 1)" offset="100%"/></linearGradient></defs><path style="transform:translate(0, 0px); opacity:1" fill="url(#sw-gradient-0)" d="M0,180L24,166.7C48,153,96,127,144,110C192,93,240,87,288,73.3C336,60,384,40,432,26.7C480,13,528,7,576,13.3C624,20,672,40,720,50C768,60,816,60,864,56.7C912,53,960,47,1008,53.3C1056,60,1104,80,1152,96.7C1200,113,1248,127,1296,113.3C1344,100,1392,60,1440,43.3C1488,27,1536,33,1584,60C1632,87,1680,133,1728,126.7C1776,120,1824,60,1872,60C1920,60,1968,120,2016,136.7C2064,153,2112,127,2160,113.3C2208,100,2256,100,2304,106.7C2352,113,2400,127,2448,110C2496,93,2544,47,2592,23.3C2640,0,2688,0,2736,26.7C2784,53,2832,107,2880,133.3C2928,160,2976,160,3024,143.3C3072,127,3120,93,3168,93.3C3216,93,3264,127,3312,133.3C3360,140,3408,120,3432,110L3456,100L3456,200L3432,200C3408,200,3360,200,3312,200C3264,200,3216,200,3168,200C3120,200,3072,200,3024,200C2976,200,2928,200,2880,200C2832,200,2784,200,2736,200C2688,200,2640,200,2592,200C2544,200,2496,200,2448,200C2400,200,2352,200,2304,200C2256,200,2208,200,2160,200C2112,200,2064,200,2016,200C1968,200,1920,200,1872,200C1824,200,1776,200,1728,200C1680,200,1632,200,1584,200C1536,200,1488,200,1440,200C1392,200,1344,200,1296,200C1248,200,1200,200,1152,200C1104,200,1056,200,1008,200C960,200,912,200,864,200C816,200,768,200,720,200C672,200,624,200,576,200C528,200,480,200,432,200C384,200,336,200,288,200C240,200,192,200,144,200C96,200,48,200,24,200L0,200Z"/></svg>